<?xml version="1.0" standalone="no"?>
<!DOCTYPE svg PUBLIC "-//W3C//DTD SVG 20010904//EN"
 "http://www.w3.org/TR/2001/REC-SVG-20010904/DTD/svg10.dtd">
<svg version="1.0" xmlns="http://www.w3.org/2000/svg"
 width="1254.000000pt" height="1254.000000pt" viewBox="0 0 1254.000000 1254.000000"
 preserveAspectRatio="xMidYMid meet">

<g transform="translate(0.000000,1254.000000) scale(0.100000,-0.100000)"
fill="#000000" stroke="none">
<path d="M2506 9904 c-549 -85 -956 -534 -1001 -1104 -9 -110 9 -277 41 -388
45 -154 101 -268 256 -516 84 -132 255 -407 381 -611 371 -599 416 -672 802
-1290 202 -324 389 -624 415 -665 26 -41 183 -291 348 -555 1201 -1923 1523
-2430 1605 -2526 393 -461 1064 -557 1574 -227 184 120 284 237 513 603 384
612 567 903 873 1390 184 293 539 862 645 1035 52 85 280 452 507 815 226 363
454 728 505 810 182 294 407 655 640 1030 130 209 245 396 257 415 36 59 100
224 122 312 117 472 -57 965 -444 1256 -79 59 -238 141 -334 171 -287 92 -616
67 -891 -68 -183 -89 -350 -235 -466 -406 -55 -81 -511 -811 -749 -1200 -154
-251 -752 -1215 -1086 -1750 -303 -487 -314 -507 -340 -597 -34 -117 -34 -326
-1 -441 104 -361 503 -796 928 -1010 155 -78 363 -147 444 -147 50 0 28 -14
-80 -49 -307 -100 -591 -79 -870 65 -113 58 -187 111 -292 212 -113 108 -180
194 -288 367 -104 168 -192 309 -837 1340 -464 744 -807 1294 -1169 1877 -849
1371 -840 1356 -914 1443 -264 312 -691 472 -1094 409z"/>
<path d="M6090 9095 c-353 -71 -616 -325 -711 -686 -31 -118 -31 -307 0 -434
58 -238 205 -437 417 -563 351 -209 822 -157 1108 123 143 140 235 315 267
509 16 104 7 289 -21 390 -90 332 -352 582 -688 656 -102 23 -273 25 -372 5z"/>
</g>
</svg>
